<svg width="38" height="38" viewBox="0 0 38 38" fill="none" xmlns="http://www.w3.org/2000/svg">
<path d="M18.8623 24.4735C17.989 24.4735 17.4069 23.8913 17.4069 23.0181C17.5524 21.126 18.5712 19.5251 20.0266 18.3608C20.8998 17.4875 21.7731 16.6143 21.7731 15.741C21.7731 14.1401 20.4632 12.8302 18.8623 12.8302C17.2613 12.8302 15.9515 14.1401 15.9515 15.741C15.9515 16.6143 15.3693 17.1964 14.4961 17.1964C13.6228 17.1964 13.0406 16.6143 13.0406 15.741C13.0406 12.5392 15.6604 9.91943 18.8623 9.91943C22.0641 9.91943 24.6839 12.5392 24.6839 15.741C24.5383 17.6331 23.5195 19.234 22.0641 20.3983C21.1909 21.2716 20.3177 22.1448 20.3177 23.0181C20.3177 23.8913 19.7355 24.4735 18.8623 24.4735Z" fill="#CC9F3A"/>
<path d="M18.8623 28.84C19.6661 28.84 20.3177 28.1884 20.3177 27.3846C20.3177 26.5808 19.6661 25.9292 18.8623 25.9292C18.0585 25.9292 17.4069 26.5808 17.4069 27.3846C17.4069 28.1884 18.0585 28.84 18.8623 28.84Z" fill="#CC9F3A"/>
<path d="M1.97955 37.2812C1.54293 36.9901 1.39739 36.4079 1.39739 35.8258L2.70725 28.4032C-2.67774 19.5253 0.233065 7.88204 9.11102 2.64259C17.989 -2.59686 29.6322 0.168406 35.0172 9.04636C40.4022 17.9243 37.4914 29.5675 28.6134 34.9525C22.7918 38.4455 15.3692 38.591 9.54764 35.0981L3.58049 37.5722C2.85279 37.7178 2.41617 37.5722 1.97955 37.2812ZM9.54764 32.0417C9.83872 32.0417 10.1298 32.1873 10.2753 32.3328C17.8434 37.1356 27.7402 34.807 32.3975 27.3844C37.0547 19.9619 34.8716 9.9196 27.4491 5.26231C20.0265 0.605027 10.1298 2.49705 5.32697 10.0651C1.97955 15.3046 1.97955 22.145 5.32697 27.3844C5.47251 27.6755 5.61805 28.1121 5.47251 28.4032L4.59927 33.7882L8.81994 32.0417H9.54764Z" fill="#CC9F3A"/>
</svg>
