<svg width="47" height="60" viewBox="0 0 47 60" fill="none" xmlns="http://www.w3.org/2000/svg">
<path fill-rule="evenodd" clip-rule="evenodd" d="M31.4439 20.7066V14.7398C31.4439 10.234 27.7573 6.54736 23.2515 6.54736C18.7456 6.54736 15.059 10.2339 15.059 14.7398V20.7066H8.50521V14.7399C8.50521 6.62949 15.141 -0.00634766 23.2515 -0.00634766C31.3619 -0.00634766 37.9977 6.62949 37.9977 14.7399V20.7066H31.4439ZM46.1103 28.9119V54.0614C46.1103 56.8787 43.8053 59.1838 40.9879 59.1838H5.515C2.69767 59.1838 0.392578 56.8787 0.392578 54.0614V28.9118C0.392578 26.0944 2.69767 23.7893 5.515 23.7893H40.9879C43.8053 23.7893 46.1103 26.0945 46.1103 28.9119ZM27.5593 37.555C27.5593 35.1759 25.6307 33.2472 23.2515 33.2472C20.8723 33.2472 18.9436 35.1759 18.9436 37.555C18.9436 39.0188 19.674 40.3119 20.7899 41.0904V47.2648C20.7899 48.6188 21.8975 49.7264 23.2515 49.7264C24.6054 49.7264 25.713 48.6186 25.713 47.2648V41.0903C26.829 40.3118 27.5593 39.0187 27.5593 37.555Z" fill="#CC9F3A"/>
</svg>
