<svg width="34" height="35" viewBox="0 0 34 35" fill="none" xmlns="http://www.w3.org/2000/svg">
<path d="M28.3717 6.40698C28.8856 6.69953 29.4669 6.85314 30.0583 6.85269C31.9476 6.85269 33.4847 5.31563 33.4847 3.42638C33.4847 1.53706 31.9476 0 30.0583 0C28.1691 0 26.632 1.53706 26.632 3.42638C26.6315 3.93538 26.7451 4.43802 26.9644 4.89733L23.2659 7.69836C22.7011 7.31627 22.0347 7.11245 21.3528 7.11327C20.6872 7.1127 20.0361 7.30717 19.4798 7.67266L15.8537 4.70565C15.9993 4.32012 16.0738 3.91137 16.0736 3.49925C16.0736 1.61 14.5365 0.0729395 12.6473 0.0729395C10.758 0.0729395 9.22095 1.61 9.22095 3.49925C9.22095 3.97811 9.32007 4.4342 9.49828 4.84853L4.76125 9.83186C4.49309 9.76563 4.2179 9.73212 3.94169 9.73205C2.05244 9.73205 0.515381 11.2691 0.515381 13.1584C0.515381 15.0476 2.05244 16.5847 3.94169 16.5847C5.83094 16.5847 7.368 15.0476 7.368 13.1584C7.368 12.3104 7.05765 11.5339 6.54543 10.935L10.8452 6.4117C11.386 6.7482 12.0103 6.92625 12.6473 6.92562C13.3401 6.92628 14.0166 6.71566 14.5866 6.32188L18.1758 9.25859C18.0109 9.66553 17.9263 10.1005 17.9264 10.5396C17.9264 12.4288 19.4635 13.9659 21.3528 13.9659C23.242 13.9659 24.7791 12.4288 24.7791 10.5396C24.7792 10.1167 24.7006 9.69743 24.5473 9.3033L28.3717 6.40698ZM30.0583 2.05311C30.8155 2.05311 31.4316 2.66909 31.4316 3.42638C31.4316 4.18353 30.8156 4.79951 30.0583 4.79951C29.3012 4.79951 28.6851 4.18353 28.6851 3.42638C28.6852 2.66916 29.3012 2.05311 30.0583 2.05311ZM3.94169 14.5316C3.18454 14.5316 2.56849 13.9156 2.56849 13.1584C2.56849 12.4011 3.18447 11.7852 3.94169 11.7852C4.69884 11.7852 5.31489 12.4011 5.31489 13.1584C5.31489 13.9156 4.69884 14.5316 3.94169 14.5316ZM12.6473 4.87245C11.8901 4.87245 11.2741 4.25646 11.2741 3.49925C11.2741 2.74203 11.89 2.12611 12.6473 2.12611C13.4045 2.12611 14.0205 2.7421 14.0205 3.49925C14.0205 4.2564 13.4044 4.87245 12.6473 4.87245ZM21.3528 11.9126C20.5957 11.9126 19.9796 11.2967 19.9796 10.5395C19.9796 9.78236 20.5956 9.16631 21.3528 9.16631C22.11 9.16631 22.726 9.78229 22.726 10.5395C22.726 11.2967 22.11 11.9126 21.3528 11.9126ZM29.9988 13.2367C28.1522 13.2367 26.6498 14.7391 26.6498 16.5857V35H33.3478V16.5857C33.3478 14.7391 31.8454 13.2367 29.9988 13.2367ZM31.2947 32.9468H28.7029V16.5857C28.7029 15.8712 29.2842 15.2899 29.9987 15.2899C30.7133 15.2899 31.2946 15.8712 31.2946 16.5857L31.2947 32.9468ZM21.3528 21.625C19.5062 21.625 18.0038 23.1273 18.0038 24.9741V35H24.7019V24.974C24.7019 23.1273 23.1995 21.625 21.3528 21.625ZM22.6487 32.9468H20.0569V24.974C20.0569 24.2594 20.6383 23.6781 21.3528 23.6781C22.0673 23.6781 22.6486 24.2594 22.6486 24.974L22.6487 32.9468ZM12.5937 15.9744C10.7471 15.9744 9.24467 17.4767 9.24467 19.3234V35H15.9428V19.3234C15.9428 17.4768 14.4405 15.9744 12.5937 15.9744ZM13.8897 32.9468H11.2978V19.3234C11.2978 18.6089 11.8792 18.0275 12.5937 18.0275C13.3083 18.0275 13.8896 18.6089 13.8896 19.3234V32.9468H13.8897ZM3.94777 24.7001C2.10111 24.7001 0.598711 26.2024 0.598711 28.0491V35H7.29677V28.0491C7.29677 26.2024 5.79436 24.7001 3.94777 24.7001ZM5.24359 32.9468H2.65188V28.0491C2.65188 27.3345 3.23321 26.7532 3.94777 26.7532C4.66227 26.7532 5.24359 27.3345 5.24359 28.0491V32.9468Z" fill="#CC9F3A"/>
</svg>
