<svg width="30" height="34" viewBox="0 0 30 34" fill="none" xmlns="http://www.w3.org/2000/svg">
<path d="M6.375 0C5.20625 0 4.25 0.95625 4.25 2.125V31.875C4.25 33.0438 5.20625 34 6.375 34H27.625C28.7938 34 29.75 33.0438 29.75 31.875V8.5L21.25 0H6.375Z" fill="#E2E5E7"/>
<path d="M23.375 8.5H29.75L21.25 0V6.375C21.25 7.54375 22.2062 8.5 23.375 8.5Z" fill="#B0B7BD"/>
<path d="M29.75 14.875L23.375 8.5H29.75V14.875Z" fill="#CAD1D8"/>
<path d="M25.5 27.625C25.5 28.2094 25.0219 28.6875 24.4375 28.6875H1.0625C0.478125 28.6875 0 28.2094 0 27.625V17C0 16.4156 0.478125 15.9375 1.0625 15.9375H24.4375C25.0219 15.9375 25.5 16.4156 25.5 17V27.625Z" fill="#50BEE8"/>
<path d="M4.02253 25.5C3.74203 25.5 3.43604 25.3459 3.43604 24.973V20.1482C3.43604 19.8422 3.74203 19.6212 4.02253 19.6212H5.96797C9.85035 19.6212 9.76429 25.5 6.04341 25.5H4.02253ZM4.55803 20.6571V24.463H5.96797C8.26191 24.463 8.36285 20.6571 5.96797 20.6571H4.55803ZM13.0155 25.585C11.4441 25.653 9.8121 24.6075 9.8121 22.5261C9.8121 20.4361 11.443 19.4087 13.0155 19.4087C14.502 19.4841 16.0564 20.5126 16.0564 22.5261C16.0564 24.5406 14.502 25.585 13.0155 25.585ZM12.922 20.5137C11.97 20.5137 10.9341 21.1852 10.9341 22.5271C10.9341 23.8616 11.9711 24.5416 12.922 24.5416C13.8995 24.5416 14.944 23.8616 14.944 22.5271C14.944 21.1841 13.8995 20.5137 12.922 20.5137ZM17.0562 22.5176C17.0562 20.8781 18.0847 19.4682 20.0387 19.4682C20.7782 19.4682 21.3647 19.6892 21.9841 20.2247C22.2136 20.4361 22.2391 20.8101 22.0096 21.0481C21.7801 21.2511 21.4316 21.2266 21.2276 21.0226C20.8802 20.6571 20.5232 20.5562 20.0387 20.5562C18.7307 20.5562 18.1028 21.4827 18.1028 22.5186C18.1028 23.5726 18.7222 24.5406 20.0387 24.5406C20.5232 24.5406 20.9737 24.344 21.3647 23.9966C21.6271 23.7926 21.9926 23.8935 22.1456 24.0986C22.2816 24.2856 22.3485 24.6001 22.0521 24.8965C21.4571 25.4501 20.7442 25.5606 20.0376 25.5606C17.9827 25.5606 17.0562 24.157 17.0562 22.5176Z" fill="white"/>
<path d="M24.4375 28.6875H4.25V29.75H24.4375C25.0219 29.75 25.5 29.2719 25.5 28.6875V27.625C25.5 28.2094 25.0219 28.6875 24.4375 28.6875Z" fill="#CAD1D8"/>
</svg>
