<svg width="23" height="16" viewBox="0 0 23 16" fill="none" xmlns="http://www.w3.org/2000/svg">
<path d="M14.0159 8.17969L15.2913 6.96802C15.3841 7.29785 15.4385 7.64269 15.4385 8.00002C15.4385 10.2057 13.5497 12 11.228 12C10.8519 12 10.4889 11.9483 10.1417 11.8602L11.4171 10.6485C12.0913 10.605 12.726 10.3309 13.2038 9.87703C13.6816 9.42313 13.9701 8.82013 14.0159 8.17969ZM22.3676 7.67619C22.2813 7.52869 21.0571 5.49086 18.6641 3.76386L17.6429 4.73403C19.3878 5.95286 20.4934 7.37435 20.9286 8.00102C20.0969 9.20418 16.8341 13.3333 11.228 13.3333C10.3873 13.3333 9.60554 13.2312 8.86993 13.0682L7.71678 14.1637C8.77695 14.4725 9.94221 14.6667 11.228 14.6667C18.5741 14.6667 22.2162 8.58269 22.3676 8.32385C22.4256 8.22481 22.456 8.11335 22.456 8.00002C22.456 7.88669 22.4256 7.77523 22.3676 7.67619ZM19.4434 1.13804L4.00487 15.8047C3.86785 15.9348 3.68821 16 3.50873 16C3.32926 16 3.14961 15.9348 3.0126 15.8047C2.94739 15.7428 2.89567 15.6693 2.86037 15.5884C2.82508 15.5076 2.80691 15.4209 2.80691 15.3333C2.80691 15.2458 2.82508 15.1591 2.86037 15.0782C2.89567 14.9973 2.94739 14.9239 3.0126 14.862L4.9768 12.996C1.80137 11.1748 0.187874 8.49402 0.0884007 8.32385C0.0304253 8.22478 0 8.11329 0 7.99994C0 7.88658 0.0304253 7.7751 0.0884007 7.67602C0.239803 7.41736 3.88189 1.33337 11.228 1.33337C13.1275 1.33337 14.7727 1.74504 16.1792 2.3537L18.4511 0.195374C18.7253 -0.0651248 19.1694 -0.0651248 19.4434 0.195374C19.7174 0.455874 19.7176 0.877706 19.4434 1.13804ZM6.02328 12.0018L7.79994 10.314C7.30924 9.66002 7.01749 8.86252 7.01749 8.00002C7.01749 5.79436 8.90625 4.00003 11.228 4.00003C12.1359 4.00003 12.9754 4.2772 13.6638 4.7432L15.1004 3.37837C13.9653 2.94653 12.6755 2.6667 11.228 2.6667C5.62188 2.6667 2.35909 6.79586 1.52752 7.99902C2.05558 8.75935 3.57347 10.684 6.02328 12.0018ZM8.81871 9.34602L12.6448 5.71119C12.2275 5.47703 11.7469 5.33336 11.228 5.33336C9.68028 5.33336 8.42099 6.52969 8.42099 8.00002C8.42099 8.49302 8.57222 8.94952 8.81871 9.34602Z" fill="#8A8A8A"/>
</svg>
