<svg width="37" height="36" viewBox="0 0 37 36" fill="none" xmlns="http://www.w3.org/2000/svg">
<path fill-rule="evenodd" clip-rule="evenodd" d="M29.6929 24.4019C29.6201 24.1757 29.4774 23.9784 29.2853 23.8385C29.0933 23.6986 28.8618 23.6232 28.6242 23.6232C28.3866 23.6232 28.1551 23.6986 27.9631 23.8385C27.771 23.9784 27.6283 24.1757 27.5555 24.4019L26.4869 27.6771L23.2134 28.7418C22.7521 28.8925 22.4372 29.3245 22.4372 29.8116C22.4372 30.2987 22.7521 30.7307 23.2134 30.8814L26.4869 31.9461L27.5555 35.2213C27.6283 35.4475 27.771 35.6447 27.9631 35.7847C28.1551 35.9246 28.3866 36 28.6242 36C28.8618 36 29.0933 35.9246 29.2853 35.7847C29.4774 35.6447 29.6201 35.4475 29.6929 35.2213L30.7615 31.9461L34.035 30.8814C34.4963 30.7307 34.8112 30.2987 34.8112 29.8116C34.8112 29.3245 34.4963 28.8925 34.035 28.7418L30.7615 27.6771L29.6929 24.4019ZM0.501343 20.8117C0.501343 21.6335 1.03005 22.3641 1.81187 22.6183L10.0744 25.3035L12.7573 33.5621C12.8814 33.9431 13.1229 34.2751 13.4472 34.5106C13.7715 34.746 14.162 34.8728 14.5628 34.8728C14.9635 34.8728 15.354 34.746 15.6783 34.5106C16.0026 34.2751 16.2441 33.9431 16.3683 33.5621L19.0568 25.3035L27.3137 22.6183C27.6947 22.4941 28.0267 22.2524 28.2621 21.928C28.4975 21.6036 28.6243 21.2131 28.6242 20.8123C28.6242 19.99 28.0955 19.2605 27.3137 19.0062L19.0568 16.3211L16.3683 8.0625C16.2444 7.68117 16.003 7.34883 15.6787 7.11314C15.3544 6.87744 14.9637 6.7505 14.5628 6.7505C14.1618 6.7505 13.7712 6.87744 13.4468 7.11314C13.1225 7.34883 12.8811 7.68117 12.7573 8.0625L10.0744 16.3211L1.81187 19.0062C1.43076 19.1302 1.0987 19.3717 0.863276 19.6961C0.627853 20.0204 0.501155 20.4109 0.501343 20.8117ZM14.5628 9.78362L17.0938 17.5613C17.2007 17.9038 17.4707 18.1721 17.8138 18.2835L25.5926 20.8123L17.8138 23.3411C17.4707 23.4525 17.2007 23.7207 17.0938 24.0633L14.5628 31.8409L12.0317 24.0633C11.9781 23.8942 11.8848 23.7403 11.7595 23.6147C11.6343 23.489 11.4807 23.3952 11.3118 23.3411L3.53299 20.8123L11.3118 18.2835C11.4807 18.2293 11.6343 18.1355 11.7595 18.0099C11.8848 17.8842 11.9781 17.7304 12.0317 17.5613L14.5628 9.78362ZM28.6242 28.3875L28.7986 28.9173C28.9054 29.2598 29.1754 29.5281 29.5185 29.6395L30.0472 29.8116L29.5185 29.9837C29.1754 30.0951 28.9054 30.3634 28.7986 30.7059L28.6242 31.2357L28.4498 30.7059C28.3962 30.5368 28.3029 30.383 28.1776 30.2573C28.0524 30.1317 27.8988 30.0378 27.7299 29.9837L27.2012 29.8116L27.7299 29.6395C27.8988 29.5853 28.0524 29.4915 28.1776 29.3659C28.3029 29.2402 28.3962 29.0864 28.4498 28.9173L28.6242 28.3875ZM29.1304 0.778683C29.0576 0.5525 28.9149 0.355248 28.7229 0.215319C28.5308 0.0753901 28.2994 0 28.0617 0C27.8241 0 27.5926 0.0753901 27.4006 0.215319C27.2086 0.355248 27.0659 0.5525 26.9931 0.778683L25.3732 5.75137L20.4011 7.36843C19.9399 7.51917 19.6249 7.95114 19.6249 8.43823C19.6249 8.92531 19.9399 9.35728 20.4011 9.50802L25.3732 11.1251L26.9931 16.0978C27.0659 16.324 27.2086 16.5212 27.4006 16.6611C27.5926 16.8011 27.8241 16.8765 28.0617 16.8765C28.2994 16.8765 28.5308 16.8011 28.7229 16.6611C28.9149 16.5212 29.0576 16.324 29.1304 16.0978L30.7503 11.1251L35.7224 9.50802C36.1836 9.35728 36.4986 8.92531 36.4986 8.43823C36.4986 7.95114 36.1836 7.51917 35.7224 7.36843L30.7503 5.75137L29.1304 0.778683ZM28.0617 4.76426L28.7873 6.99215C28.8998 7.33412 29.1642 7.60241 29.5073 7.71378L31.7346 8.43823L29.5073 9.16267C29.1642 9.27404 28.8998 9.54233 28.7873 9.8843L28.0617 12.1122L27.3362 9.8843C27.2816 9.71576 27.1879 9.56253 27.0628 9.43711C26.9377 9.3117 26.7846 9.21766 26.6162 9.16267L24.3889 8.43823L26.6162 7.71378C26.7846 7.6588 26.9377 7.56475 27.0628 7.43934C27.1879 7.31392 27.2816 7.16069 27.3362 6.99215L28.0617 4.76426ZM5.001 7.31331H3.87609C3.25738 7.31331 2.75117 7.81727 2.75117 8.43823C2.75117 9.05918 3.25738 9.56314 3.87609 9.56314H5.001V10.6881C5.001 11.309 5.50721 11.813 6.12591 11.813C6.74462 11.813 7.25083 11.309 7.25083 10.6881V9.56314H8.37574C8.99445 9.56314 9.50066 9.05918 9.50066 8.43823C9.50066 7.81727 8.99445 7.31331 8.37574 7.31331H7.25083V6.1884C7.25083 5.56744 6.74462 5.06348 6.12591 5.06348C5.50721 5.06348 5.001 5.56744 5.001 6.1884V7.31331Z" fill="#CC9F3A"/>
</svg>
