<svg width="36" height="36" viewBox="0 0 36 36" fill="none" xmlns="http://www.w3.org/2000/svg">
<rect x="0.5" y="0.5" width="34.9995" height="35" rx="6.5" stroke="#D0D0D0"/>
<path d="M22.9996 8H12.9999C10.2502 8 8 10.2502 8 12.9999V23.0001C8 25.7491 10.2502 28 12.9999 28H22.9996C25.7493 28 27.9995 25.7491 27.9995 23.0001V12.9999C27.9995 10.2502 25.7493 8 22.9996 8ZM26.3328 23.0001C26.3328 24.8376 24.8381 26.3333 22.9996 26.3333H12.9999C11.1622 26.3333 9.66671 24.8376 9.66671 23.0001V12.9999C9.66671 11.1619 11.1622 9.66671 12.9999 9.66671H22.9996C24.8381 9.66671 26.3328 11.1619 26.3328 12.9999V23.0001Z" fill="#D0D0D0"/>
<path d="M23.4172 13.8329C24.1075 13.8329 24.6672 13.2733 24.6672 12.583C24.6672 11.8926 24.1075 11.333 23.4172 11.333C22.7269 11.333 22.1672 11.8926 22.1672 12.583C22.1672 13.2733 22.7269 13.8329 23.4172 13.8329Z" fill="#D0D0D0"/>
<path d="M17.9999 13C15.2379 13 13 15.2382 13 17.9999C13 20.7606 15.2379 23.0002 17.9999 23.0002C20.761 23.0002 22.9998 20.7606 22.9998 17.9999C22.9998 15.2382 20.761 13 17.9999 13ZM17.9999 21.3335C16.1592 21.3335 14.6667 19.8411 14.6667 17.9999C14.6667 16.1587 16.1592 14.6667 17.9999 14.6667C19.8406 14.6667 21.333 16.1587 21.333 17.9999C21.333 19.8411 19.8406 21.3335 17.9999 21.3335Z" fill="#D0D0D0"/>
</svg>
