<svg width="30" height="34" viewBox="0 0 30 34" fill="none" xmlns="http://www.w3.org/2000/svg">
<path d="M6.375 0C5.20625 0 4.25 0.95625 4.25 2.125V31.875C4.25 33.0438 5.20625 34 6.375 34H27.625C28.7938 34 29.75 33.0438 29.75 31.875V8.5L21.25 0H6.375Z" fill="#E2E5E7"/>
<path d="M23.375 8.5H29.75L21.25 0V6.375C21.25 7.54375 22.2062 8.5 23.375 8.5Z" fill="#B0B7BD"/>
<path d="M29.75 14.875L23.375 8.5H29.75V14.875Z" fill="#CAD1D8"/>
<path d="M25.5 27.625C25.5 28.2094 25.0219 28.6875 24.4375 28.6875H1.0625C0.478125 28.6875 0 28.2094 0 27.625V17C0 16.4156 0.478125 15.9375 1.0625 15.9375H24.4375C25.0219 15.9375 25.5 16.4156 25.5 17V27.625Z" fill="#F15642"/>
<path d="M4.63135 20.1309C4.63135 19.8504 4.85235 19.5444 5.20828 19.5444H7.17072C8.27572 19.5444 9.27022 20.2839 9.27022 21.7013C9.27022 23.0443 8.27572 23.7923 7.17072 23.7923H5.75229V24.9143C5.75229 25.2883 5.51428 25.4997 5.20828 25.4997C4.92778 25.4997 4.63135 25.2883 4.63135 24.9143V20.1309ZM5.75229 20.6144V22.7309H7.17072C7.74022 22.7309 8.19072 22.2283 8.19072 21.7013C8.19072 21.1074 7.74022 20.6144 7.17072 20.6144H5.75229ZM10.9341 25.4997C10.6536 25.4997 10.3476 25.3467 10.3476 24.9738V20.1479C10.3476 19.843 10.6536 19.6209 10.9341 19.6209H12.8795C16.7619 19.6209 16.6769 25.4997 12.956 25.4997H10.9341ZM11.4696 20.6579V24.4638H12.8795C15.1735 24.4638 15.2755 20.6579 12.8795 20.6579H11.4696ZM18.0539 20.7259V22.0764H20.2203C20.5263 22.0764 20.8323 22.3824 20.8323 22.6788C20.8323 22.9593 20.5263 23.1888 20.2203 23.1888H18.0539V24.9727C18.0539 25.2702 17.8425 25.4987 17.545 25.4987C17.171 25.4987 16.9425 25.2702 16.9425 24.9727V20.1469C16.9425 19.8419 17.172 19.6199 17.545 19.6199H20.5274C20.9014 19.6199 21.1224 19.8419 21.1224 20.1469C21.1224 20.4189 20.9014 20.7249 20.5274 20.7249H18.0539V20.7259Z" fill="white"/>
<path d="M24.4375 28.6875H4.25V29.75H24.4375C25.0219 29.75 25.5 29.2719 25.5 28.6875V27.625C25.5 28.2094 25.0219 28.6875 24.4375 28.6875Z" fill="#CAD1D8"/>
</svg>
