<svg width="37" height="37" viewBox="0 0 37 37" fill="none" xmlns="http://www.w3.org/2000/svg">
<path fill-rule="evenodd" clip-rule="evenodd" d="M14.3895 1C12.228 0.999904 10.0987 1.5231 8.18342 2.52488C6.26815 3.52667 4.62388 4.97725 3.39113 6.75268C2.15837 8.52811 1.37378 10.5756 1.1044 12.7202C0.83501 14.8648 1.08884 17.0427 1.8442 19.0679C2.59955 21.093 3.83398 22.9052 5.44199 24.3496C7.05 25.7939 8.98379 26.8275 11.0781 27.362C13.1724 27.8964 15.365 27.9159 17.4685 27.4188C19.572 26.9216 21.5238 25.9226 23.1573 24.507L24.7008 26.0525C24.4452 26.5879 24.3618 27.1893 24.4622 27.7741C24.5626 28.3588 24.8417 28.898 25.2612 29.3175L31.2289 35.2851C31.4937 35.559 31.8103 35.7774 32.1604 35.9276C32.5106 36.0778 32.8871 36.1568 33.268 36.1599C33.649 36.163 34.0267 36.0903 34.3792 35.9458C34.7318 35.8014 35.052 35.5882 35.3213 35.3187C35.5905 35.0492 35.8034 34.7288 35.9475 34.3761C36.0916 34.0235 36.164 33.6456 36.1605 33.2647C36.157 32.8837 36.0777 32.5073 35.9272 32.1573C35.7766 31.8074 35.5579 31.4909 35.2838 31.2264L29.3181 25.2587C28.8986 24.8392 28.3594 24.5601 27.7746 24.4597C27.1899 24.3593 26.5885 24.4427 26.0531 24.6983L24.5096 23.1567C26.1905 21.2168 27.2783 18.8346 27.6435 16.2939C28.0088 13.7532 27.636 11.1611 26.5695 8.82627C25.5031 6.49147 23.788 4.51242 21.6286 3.12486C19.4691 1.73731 16.9563 0.999732 14.3895 1ZM2.91329 14.3889C2.91329 12.8818 3.21013 11.3895 3.78687 9.99714C4.3636 8.60478 5.20893 7.33966 6.27459 6.27399C7.34025 5.20833 8.60538 4.363 9.99773 3.78627C11.3901 3.20954 12.8824 2.9127 14.3895 2.9127C15.8966 2.9127 17.3889 3.20954 18.7812 3.78627C20.1736 4.363 21.4387 5.20833 22.5044 6.27399C23.57 7.33966 24.4154 8.60478 24.9921 9.99714C25.5688 11.3895 25.8657 12.8818 25.8657 14.3889C25.8657 17.4326 24.6566 20.3516 22.5044 22.5038C20.3522 24.656 17.4332 25.8651 14.3895 25.8651C11.3458 25.8651 8.42679 24.656 6.27459 22.5038C4.12239 20.3516 2.91329 17.4326 2.91329 14.3889ZM33.9334 32.5786L27.9658 26.611C27.8769 26.5222 27.7714 26.4518 27.6552 26.4038C27.5391 26.3558 27.4146 26.3311 27.289 26.3312C27.1633 26.3313 27.0389 26.3562 26.9229 26.4043C26.8068 26.4525 26.7014 26.5231 26.6126 26.612C26.5238 26.7009 26.4534 26.8064 26.4054 26.9226C26.3574 27.0387 26.3327 27.1631 26.3328 27.2888C26.3329 27.4144 26.3577 27.5389 26.4059 27.6549C26.4541 27.771 26.5246 27.8764 26.6135 27.9652L32.5811 33.9328C32.6701 34.0216 32.7756 34.092 32.8917 34.14C33.0078 34.188 33.1323 34.2127 33.258 34.2126C33.3836 34.2125 33.508 34.1877 33.6241 34.1395C33.7401 34.0913 33.8456 34.0208 33.9344 33.9319C34.0232 33.8429 34.0936 33.7374 34.1416 33.6213C34.1896 33.5052 34.2142 33.3807 34.2142 33.2551C34.2141 33.1294 34.1892 33.005 34.1411 32.8889C34.0929 32.7729 34.0223 32.6674 33.9334 32.5786Z" fill="#CC9F3A" stroke="#CC9F3A" stroke-width="0.5"/>
</svg>
