<svg width="36" height="38" viewBox="0 0 36 38" fill="none" xmlns="http://www.w3.org/2000/svg">
<path fill-rule="evenodd" clip-rule="evenodd" d="M35.0513 12.8187C35.0513 11.3981 34.4862 10.0359 33.4826 9.03036L26.0209 1.56872C25.0158 0.564664 23.6533 0.000472529 22.2326 0H10.2051C7.75019 0 5.39578 0.975226 3.65987 2.71114C1.92396 4.44705 0.94873 6.80146 0.94873 9.25641V28.7436C0.94873 31.1985 1.92396 33.5529 3.65987 35.2889C5.39578 37.0248 7.75019 38 10.2051 38H25.7949C28.2498 38 30.6042 37.0248 32.3402 35.2889C34.0761 33.5529 35.0513 31.1985 35.0513 28.7436V12.8187ZM22.3846 2.92697L22.2326 2.92308H10.2051C9.37322 2.92231 8.54931 3.0856 7.78057 3.40361C7.01183 3.72161 6.31334 4.1881 5.72508 4.77635C5.13683 5.36461 4.67034 6.0631 4.35234 6.83184C4.03433 7.60058 3.87104 8.42449 3.87181 9.25641V28.7436C3.87181 30.4233 4.53907 32.0342 5.7268 33.2219C6.91453 34.4097 8.52544 35.0769 10.2051 35.0769H25.7949C27.4746 35.0769 29.0855 34.4097 30.2732 33.2219C31.461 32.0342 32.1282 30.4233 32.1282 28.7436V12.8187L32.1243 12.6667H27.7436C26.323 12.6667 24.9589 12.1015 23.9533 11.0979C22.9494 10.092 22.3852 8.72895 22.3846 7.30769V2.92697ZM30.0606 9.74359L25.3077 4.99067V7.30769C25.3087 7.95342 25.5657 8.5724 26.0223 9.02899C26.4789 9.48559 27.0979 9.74256 27.7436 9.74359H30.0606Z" fill="#CC9F3A"/>
<path fill-rule="evenodd" clip-rule="evenodd" d="M18 13.6411H18.0351C18.1666 13.6448 18.2969 13.6657 18.4229 13.7035L18.4268 13.7054C18.656 13.7746 18.8643 13.8998 19.0329 14.0698L22.9303 17.9673C23.0659 18.1029 23.1735 18.2639 23.2469 18.4411C23.3203 18.6183 23.3581 18.8083 23.3581 19.0001C23.3581 19.1919 23.3203 19.3818 23.2469 19.559C23.1735 19.7363 23.0659 19.8973 22.9303 20.0329C22.7947 20.1685 22.6336 20.2761 22.4564 20.3495C22.2792 20.4229 22.0893 20.4607 21.8975 20.4607C21.7057 20.4607 21.5157 20.4229 21.3385 20.3495C21.1613 20.2761 21.0003 20.1685 20.8646 20.0329L19.4616 18.6318V24.8462C19.4616 25.2339 19.3076 25.6056 19.0335 25.8797C18.7594 26.1538 18.3877 26.3078 18 26.3078C17.6124 26.3078 17.2407 26.1538 16.9666 25.8797C16.6925 25.6056 16.5385 25.2339 16.5385 24.8462V18.6318L15.1354 20.0329C14.9998 20.1685 14.8388 20.2761 14.6616 20.3495C14.4843 20.4229 14.2944 20.4607 14.1026 20.4607C13.9108 20.4607 13.7209 20.4229 13.5436 20.3495C13.3664 20.2761 13.2054 20.1685 13.0698 20.0329C12.9341 19.8973 12.8266 19.7363 12.7532 19.559C12.6797 19.3818 12.642 19.1919 12.642 19.0001C12.642 18.8083 12.6797 18.6183 12.7532 18.4411C12.8266 18.2639 12.9341 18.1029 13.0698 17.9673L16.9672 14.0698C17.1358 13.8998 17.3441 13.7746 17.5733 13.7054L17.5772 13.7035C17.7031 13.6657 17.8335 13.6448 17.965 13.6411H18Z" fill="#CC9F3A"/>
</svg>
