<svg width="20" height="20" viewBox="0 0 20 20" fill="none" xmlns="http://www.w3.org/2000/svg">
<path fill-rule="evenodd" clip-rule="evenodd" d="M9.82092 0C12.4418 0.0473615 14.9393 1.12175 16.776 2.99196C18.6128 4.86217 19.6418 7.3787 19.6418 10C19.6418 12.6213 18.6128 15.1378 16.776 17.008C14.9393 18.8783 12.4418 19.9526 9.82092 20C7.20005 19.9526 4.70252 18.8783 2.86581 17.008C1.02909 15.1378 0 12.6213 0 10C0 7.3787 1.02909 4.86217 2.86581 2.99196C4.70252 1.12175 7.20005 0.0473615 9.82092 0ZM7.74419 13.2484L5.29521 10.7973C5.09475 10.5961 4.98219 10.3237 4.98219 10.0397C4.98219 9.75574 5.09475 9.48333 5.29521 9.28218C5.49669 9.08191 5.76923 8.96951 6.05331 8.96951C6.33738 8.96951 6.60992 9.08191 6.8114 9.28218L8.53657 11.0095L12.8304 6.71565C13.0316 6.51519 13.304 6.40263 13.588 6.40263C13.872 6.40263 14.1444 6.51519 14.3455 6.71565C14.5457 6.91694 14.6581 7.1893 14.6581 7.4732C14.6581 7.7571 14.5457 8.02945 14.3455 8.23075L9.29303 13.2833C9.19047 13.3853 9.06835 13.4656 8.934 13.5193C8.79965 13.573 8.65584 13.599 8.51119 13.5957C8.36655 13.5925 8.22405 13.56 8.09225 13.5003C7.96045 13.4407 7.84206 13.355 7.74419 13.2484Z" fill="#37B1DE"/>
</svg>
