<svg width="19" height="20" viewBox="0 0 19 20" fill="none" xmlns="http://www.w3.org/2000/svg">
<path d="M9.34059 10.7692C10.4056 10.7692 11.4466 10.4534 12.3321 9.86173C13.2176 9.27007 13.9078 8.42911 14.3153 7.4452C14.7229 6.46129 14.8295 5.37863 14.6217 4.33412C14.414 3.28961 13.9011 2.33017 13.1481 1.57712C12.395 0.824066 11.4356 0.311232 10.3911 0.103466C9.34657 -0.1043 8.2639 0.00233304 7.28 0.409881C6.29609 0.817428 5.45513 1.50759 4.86346 2.39308C4.27179 3.27857 3.95599 4.31963 3.95599 5.3846C3.95599 6.81269 4.5233 8.18228 5.53311 9.19209C6.54291 10.2019 7.91251 10.7692 9.34059 10.7692ZM9.34059 1.53846C10.1013 1.53846 10.8449 1.76403 11.4774 2.18665C12.1099 2.60927 12.6029 3.20996 12.894 3.91275C13.1851 4.61554 13.2612 5.38887 13.1128 6.13495C12.9644 6.88103 12.5981 7.56634 12.0602 8.10424C11.5223 8.64213 10.837 9.00844 10.0909 9.15684C9.34486 9.30525 8.57153 9.22908 7.86874 8.93797C7.16595 8.64687 6.56526 8.1539 6.14264 7.5214C5.72002 6.88891 5.49445 6.1453 5.49445 5.3846C5.49445 4.36454 5.89967 3.38626 6.62096 2.66497C7.34225 1.94368 8.32053 1.53846 9.34059 1.53846ZM18.5713 16.4C18.1477 14.9271 17.2581 13.6312 16.0358 12.7066C14.8135 11.782 13.3244 11.2786 11.7919 11.2718H6.89957C5.36742 11.2803 3.87915 11.7843 2.65719 12.7087C1.43523 13.633 0.545196 14.9279 0.120107 16.4H0.10985C-0.0108426 16.8197 -0.0324249 17.2617 0.0468039 17.6911C0.126033 18.1206 0.303908 18.5258 0.566415 18.8748C0.828922 19.2238 1.16889 19.5071 1.55953 19.7024C1.95017 19.8976 2.38082 19.9995 2.81753 19.9999H15.8431C16.2816 20.0027 16.7146 19.9031 17.1079 19.7093C17.5012 19.5154 17.8438 19.2325 18.1086 18.883C18.3734 18.5336 18.5532 18.1272 18.6335 17.6962C18.7138 17.2652 18.6925 16.8213 18.5713 16.4ZM16.8893 17.9487C16.7699 18.1079 16.615 18.2371 16.437 18.3261C16.259 18.4151 16.0627 18.4615 15.8637 18.4615H2.82779C2.62991 18.461 2.43482 18.4148 2.2578 18.3263C2.08077 18.2379 1.92662 18.1097 1.80742 17.9518C1.68821 17.7938 1.60719 17.6104 1.57069 17.4159C1.53419 17.2214 1.5432 17.0211 1.59703 16.8307C1.92965 15.6804 2.62616 14.6688 3.58215 13.9476C4.53813 13.2265 5.7021 12.8346 6.89957 12.8307H11.7816C12.9808 12.8336 14.1466 13.2263 15.1031 13.9497C16.0596 14.6731 16.7549 15.6879 17.0842 16.841C17.1373 17.029 17.1465 17.2267 17.1109 17.4188C17.0754 17.6109 16.996 17.7922 16.879 17.9487H16.8893Z" fill="#A4A4A4"/>
</svg>
